<svg width="109" height="109" viewBox="0 0 109 109" fill="none" xmlns="http://www.w3.org/2000/svg">
<circle cx="54.5" cy="54.5" r="54.5" fill="#FCD9D2"/>
<circle cx="55" cy="55" r="37" fill="#F1401C"/>
<path fill-rule="evenodd" clip-rule="evenodd" d="M36 50C36 45.5817 39.5817 42 44 42H67C71.4183 42 75 45.5817 75 50L75 51.3134C72.4282 51.3134 70.3433 53.3983 70.3433 55.9701C70.3433 58.542 72.4282 60.6268 75 60.6268L75 61.9403C75 66.3586 71.4183 69.9403 67 69.9403H44C39.5817 69.9403 36 66.3586 36 61.9403V60.4801C36.3721 60.5759 36.7622 60.6268 37.1642 60.6268C39.736 60.6268 41.8209 58.542 41.8209 55.9701C41.8209 53.3983 39.736 51.3134 37.1642 51.3134C36.7622 51.3134 36.3721 51.3643 36 51.4601V50Z" fill="white"/>
<path d="M55.5 46.0746L57.6563 52.7111L64.6344 52.7111L58.989 56.8127L61.1454 63.4492L55.5 59.3476L49.8546 63.4492L52.011 56.8127L46.3656 52.7111L53.3436 52.7111L55.5 46.0746Z" fill="#F1401C"/>
</svg>
