<svg width="20" height="32" viewBox="0 0 20 32" fill="none" xmlns="http://www.w3.org/2000/svg">
<path d="M9.75 0C4.3641 0 0 4.34655 0 9.7305C0 19.0398 9.75 31.1805 9.75 31.1805C9.75 31.1805 19.5 19.0378 19.5 9.7305C19.5 4.3485 15.1359 0 9.75 0V0ZM9.75 15.1145C8.35364 15.1145 7.01446 14.5597 6.02708 13.5724C5.0397 12.585 4.485 11.2458 4.485 9.84945C4.485 8.45308 5.0397 7.11391 6.02708 6.12653C7.01446 5.13915 8.35364 4.58445 9.75 4.58445C11.1464 4.58445 12.4855 5.13915 13.4729 6.12653C14.4603 7.11391 15.015 8.45308 15.015 9.84945C15.015 11.2458 14.4603 12.585 13.4729 13.5724C12.4855 14.5597 11.1464 15.1145 9.75 15.1145Z" fill="white"/>
</svg>
