<svg width="26" height="27" viewBox="0 0 26 27" fill="none" xmlns="http://www.w3.org/2000/svg">
<path d="M22.4884 0.8125H2.84556C2.13516 0.8125 1.45386 1.09894 0.951528 1.6088C0.449198 2.11867 0.166992 2.81019 0.166992 3.53125L0.166992 23.4688C0.166992 24.1898 0.449198 24.8813 0.951528 25.3912C1.45386 25.9011 2.13516 26.1875 2.84556 26.1875H22.4884C23.1988 26.1875 23.8801 25.9011 24.3825 25.3912C24.8848 24.8813 25.167 24.1898 25.167 23.4688V3.53125C25.167 2.81019 24.8848 2.11867 24.3825 1.6088C23.8801 1.09894 23.1988 0.8125 22.4884 0.8125ZM21.5738 18.2221L20.7367 21.9038C20.6942 22.0909 20.5905 22.258 20.4424 22.3776C20.2943 22.4972 20.1107 22.5624 19.9215 22.5625C10.9929 22.5625 3.73842 15.2156 3.73842 6.13672C3.74506 5.94644 3.8117 5.76334 3.92853 5.61438C4.04536 5.46541 4.20621 5.35844 4.38742 5.3092L8.01465 4.45959C8.07652 4.44631 8.13948 4.43891 8.20271 4.4375C8.36457 4.44579 8.5213 4.49791 8.65662 4.58845C8.79194 4.67899 8.90092 4.80464 8.97224 4.95236L10.6463 8.91721C10.6873 9.02411 10.7102 9.1373 10.7139 9.25195C10.7002 9.50346 10.5901 9.73954 10.4069 9.90955L8.29255 11.6654C9.5737 14.4215 11.7591 16.6397 14.4745 17.9401L16.2044 15.7939C16.3719 15.6081 16.6045 15.4963 16.8523 15.4824C16.9652 15.4861 17.0768 15.5093 17.1821 15.551L21.0883 17.2502C21.2339 17.3225 21.3578 17.4331 21.447 17.5704C21.5362 17.7078 21.5875 17.8669 21.5956 18.0312C21.5944 18.0954 21.5872 18.1594 21.5738 18.2221Z" fill="white"/>
</svg>
