<svg display="none" xmlns="http://www.w3.org/2000/svg">
		<symbol id="instagram" viewBox="0 0 32 32">
		<g><path d="M17.36 2.66699C19.76 2.66699 20.267 2.69399 21.493 2.74699C22.906 2.81399 23.88 3.03999 24.72 3.37399C25.6 3.70699 26.347 4.17399 27.08 4.90699C27.827 5.63999 28.28 6.38699 28.627 7.26699C28.96 8.10699 29.174 9.07999 29.24 10.507C29.307 11.774 29.32 12.267 29.32 14.934V17.067C29.32 19.734 29.307 20.227 29.24 21.494C29.217 22.659 28.994 23.764 28.604 24.788L28.626 24.721C28.279 25.601 27.826 26.348 27.093 27.081C26.346 27.828 25.6 28.281 24.72 28.628C23.88 28.961 22.907 29.175 21.493 29.241C20.226 29.308 19.72 29.321 17.053 29.321H14.933C12.266 29.321 11.773 29.308 10.493 29.241C9.32796 29.218 8.22296 28.995 7.19896 28.605L7.26596 28.627C6.34296 28.274 5.55596 27.753 4.90696 27.094L4.90596 27.093C4.23996 26.441 3.71396 25.649 3.37396 24.764L3.35896 24.719C2.99196 23.763 2.76896 22.657 2.74596 21.502V21.492C2.69296 20.45 2.66296 19.229 2.66296 18.002C2.66296 17.776 2.66396 17.55 2.66596 17.325V17.359V14.626C2.66596 12.226 2.69296 11.719 2.74596 10.493C2.81296 9.07999 3.03896 8.10599 3.35896 7.26599C3.70596 6.38599 4.15896 5.63899 4.90596 4.90599C5.55096 4.23899 6.33996 3.71599 7.22296 3.38699L7.26596 3.37299C8.22096 3.00199 9.32596 2.77399 10.481 2.74699H10.493C11.72 2.69399 12.226 2.66699 14.626 2.66699H17.36ZM17.387 5.06699H14.6C12.293 5.06699 11.8 5.09399 10.6 5.14699C9.30696 5.19999 8.59996 5.41399 8.13296 5.59999C7.50596 5.83999 7.06596 6.13299 6.59996 6.59999C6.13396 7.06699 5.83996 7.50699 5.59996 8.13299C5.42696 8.59999 5.19996 9.30599 5.14696 10.613C5.09396 11.813 5.06696 12.293 5.06696 14.613V17.386C5.06696 19.706 5.09396 20.186 5.14696 21.386C5.19996 22.679 5.41396 23.386 5.59996 23.853C5.83996 24.48 6.13296 24.92 6.59996 25.386C7.06696 25.852 7.50696 26.146 8.13296 26.386C8.59996 26.573 9.30596 26.786 10.613 26.839C11.906 26.906 12.373 26.919 15.253 26.919H16.733C19.626 26.919 20.08 26.906 21.386 26.839C22.679 26.786 23.386 26.572 23.853 26.386C24.48 26.146 24.92 25.853 25.386 25.386C25.852 24.919 26.146 24.479 26.386 23.853C26.573 23.386 26.786 22.68 26.839 21.386C26.906 20.079 26.919 19.626 26.919 16.733V15.266C26.919 12.373 26.906 11.906 26.839 10.599C26.786 9.30599 26.572 8.59899 26.386 8.13199C26.16 7.53099 25.819 7.01799 25.387 6.59999L25.386 6.59899C24.966 6.16599 24.454 5.82499 23.881 5.60799L23.853 5.59899C23.121 5.32299 22.275 5.15799 21.391 5.14599H21.386C20.358 5.09399 19.155 5.06399 17.944 5.06399C17.748 5.06399 17.552 5.06499 17.356 5.06599H17.386L17.387 5.06699ZM16 9.14699C19.781 9.14699 22.847 12.212 22.847 15.994C22.847 19.776 19.782 22.841 16 22.841C12.219 22.841 9.15296 19.776 9.15296 15.994C9.15296 12.212 12.218 9.14699 16 9.14699ZM16 11.547C13.544 11.547 11.553 13.538 11.553 15.994C11.553 18.45 13.544 20.441 16 20.441C18.456 20.441 20.447 18.45 20.447 15.994C20.447 13.538 18.456 11.547 16 11.547ZM23.107 7.27999C23.991 7.27999 24.707 7.99599 24.707 8.87999C24.707 9.76399 23.991 10.48 23.107 10.48C22.223 10.48 21.507 9.76399 21.507 8.87999C21.507 7.99599 22.223 7.27999 23.107 7.27999Z"/></g>
	</symbol>
	<symbol id="github" viewBox="0 0 32 32">
		<g><path clip-rule="evenodd" d="M16.003,0C7.17,0,0.008,7.162,0.008,15.997  c0,7.067,4.582,13.063,10.94,15.179c0.8,0.146,1.052-0.328,1.052-0.752c0-0.38,0.008-1.442,0-2.777  c-4.449,0.967-5.371-2.107-5.371-2.107c-0.727-1.848-1.775-2.34-1.775-2.34c-1.452-0.992,0.109-0.973,0.109-0.973  c1.605,0.113,2.451,1.649,2.451,1.649c1.427,2.443,3.743,1.737,4.654,1.329c0.146-1.034,0.56-1.739,1.017-2.139  c-3.552-0.404-7.286-1.776-7.286-7.906c0-1.747,0.623-3.174,1.646-4.292C7.28,10.464,6.73,8.837,7.602,6.634  c0,0,1.343-0.43,4.398,1.641c1.276-0.355,2.645-0.532,4.005-0.538c1.359,0.006,2.727,0.183,4.005,0.538  c3.055-2.07,4.396-1.641,4.396-1.641c0.872,2.203,0.323,3.83,0.159,4.234c1.023,1.118,1.644,2.545,1.644,4.292  c0,6.146-3.74,7.498-7.304,7.893C19.479,23.548,20,24.508,20,26c0,2,0,3.902,0,4.428c0,0.428,0.258,0.901,1.07,0.746  C27.422,29.055,32,23.062,32,15.997C32,7.162,24.838,0,16.003,0z"/></g>
	</symbol>
	<symbol id="linkedin" viewBox="0 0 56.693 56.693">
		<g><path d="M30.071,27.101v-0.077c-0.016,0.026-0.033,0.052-0.05,0.077H30.071z"/><path d="M49.265,4.667H7.145c-2.016,0-3.651,1.596-3.651,3.563v42.613c0,1.966,1.635,3.562,3.651,3.562h42.12   c2.019,0,3.654-1.597,3.654-3.562V8.23C52.919,6.262,51.283,4.667,49.265,4.667z M18.475,46.304h-7.465V23.845h7.465V46.304z M14.743,20.777h-0.05c-2.504,0-4.124-1.725-4.124-3.88c0-2.203,1.67-3.88,4.223-3.88c2.554,0,4.125,1.677,4.175,3.88   C18.967,19.052,17.345,20.777,14.743,20.777z M45.394,46.304h-7.465V34.286c0-3.018-1.08-5.078-3.781-5.078   c-2.062,0-3.29,1.389-3.831,2.731c-0.197,0.479-0.245,1.149-0.245,1.821v12.543h-7.465c0,0,0.098-20.354,0-22.459h7.465v3.179   c0.992-1.53,2.766-3.709,6.729-3.709c4.911,0,8.594,3.211,8.594,10.11V46.304z"/></g>
	</symbol>
	<symbol id="pinterest" viewBox="0 0 32 32">
		<g><path d="M16 2.66699C8.65699 2.69399 2.71399 8.65299 2.71399 16C2.71399 21.599 6.16599 26.393 11.057 28.368L11.146 28.4C11.013 27.347 10.919 25.733 11.186 24.573L12.746 17.946C12.746 17.946 12.346 17.146 12.346 15.973C12.346 14.12 13.426 12.746 14.773 12.746C15.906 12.746 16.466 13.599 16.466 14.613C16.466 15.76 15.733 17.466 15.346 19.053C15.026 20.386 16.013 21.466 17.333 21.466C19.706 21.466 21.52 18.973 21.52 15.373C21.52 12.173 19.227 9.95999 15.947 9.95999C15.871 9.95599 15.783 9.95399 15.694 9.95399C12.505 9.95399 9.92099 12.539 9.92099 15.727C9.92099 15.729 9.92099 15.731 9.92099 15.733C9.92099 16.88 10.361 18.106 10.908 18.773C11.015 18.906 11.028 19.026 10.988 19.16L10.615 20.667C10.562 20.907 10.415 20.974 10.175 20.854C8.49499 20.067 7.45499 17.654 7.45499 15.681C7.45499 11.481 10.522 7.62799 16.282 7.62799C20.895 7.62799 24.509 10.908 24.509 15.321C24.509 19.921 21.602 23.614 17.576 23.614C16.243 23.614 14.963 22.907 14.536 22.081L13.696 25.241C13.265 26.578 12.704 27.739 12.008 28.804L12.042 28.748C13.212 29.12 14.558 29.335 15.953 29.335C23.317 29.335 29.286 23.365 29.286 16.002C29.286 8.65499 23.344 2.69599 16.004 2.66899H16.001L16 2.66699Z"/></g>
	</symbol>
	<symbol id="telegram" viewBox="0 0 512 512">
		<g><path d="M484.689,98.231l-69.417,327.37c-5.237,23.105-18.895,28.854-38.304,17.972L271.2,365.631     l-51.034,49.086c-5.646,5.647-10.371,10.372-21.256,10.372l7.598-107.722L402.539,140.23c8.523-7.598-1.848-11.809-13.247-4.21     L146.95,288.614L42.619,255.96c-22.694-7.086-23.104-22.695,4.723-33.579L455.423,65.166     C474.316,58.081,490.85,69.375,484.689,98.231z"/></g>
	</symbol>
	<symbol id="star" viewBox="0 0 29 27">
		<g><path d="M14.5 0L18.6674 8.76406L28.2903 10.0193L21.243 16.6909L23.0229 26.2307L14.5 21.59L5.97711 26.2307L7.757 16.6909L0.709681 10.0193L10.3326 8.76406L14.5 0Z"/></g>
	</symbol>
</svg>