<svg width="109" height="109" viewBox="0 0 109 109" fill="none" xmlns="http://www.w3.org/2000/svg">
<circle cx="54.5" cy="54.5" r="54.5" fill="#EBF6F8"/>
<circle cx="55" cy="55" r="37" fill="#00C6F9"/>
<path d="M68.3684 45.5263H61.8421V42.2632C61.8421 40.4521 60.39 39 58.5789 39H52.0526C50.2416 39 48.7895 40.4521 48.7895 42.2632V45.5263H42.2632C40.4521 45.5263 39.0163 46.9784 39.0163 48.7895L39 66.7368C39 68.5479 40.4521 70 42.2632 70H68.3684C70.1795 70 71.6316 68.5479 71.6316 66.7368V48.7895C71.6316 46.9784 70.1795 45.5263 68.3684 45.5263ZM58.5789 45.5263H52.0526V42.2632H58.5789V45.5263Z" fill="white"/>
<path d="M51.92 61.3712L47.447 57.0231L45.5264 58.8902L51.92 65.1053L65.1053 52.2881L63.1846 50.4211L51.92 61.3712Z" fill="#00C6F9"/>
</svg>
